<svg width="96" height="96" fill="none" xmlns="http://www.w3.org/2000/svg"><circle cx="48" cy="48" r="48" fill="#FCB72B"/><path fill-rule="evenodd" clip-rule="evenodd" d="M64.1713 46H66c.3682 0 .6667-.2985.6667-.6667V40c0-.3682-.2985-.6667-.6667-.6667h-6.2547l-1.0786-2.1573v-2.5093c0-.3682-.2985-.6667-.6667-.6667h-4c-.3682 0-.6667.2985-.6667.6667v2.6666c0 .3682.2985.6667.6667.6667h3.588l1.0787 2.1573V44c0-1.1046-.8955-2-2-2-1.1046 0-2 .8954-2 2v-1.3333c0-.3682-.2985-.6667-.6667-.6667h-5.2513l-2.082-.5207V30.6667C46.6667 29.1939 45.4728 28 44 28h-2.6667c-1.4727 0-2.6666 1.1939-2.6666 2.6667V38h-3.3334c-1.1045 0-2 .8954-2 2v2h-4.6666c-.2696.0001-.5127.1625-.6158.4116-.1032.249-.0462.5357.1444.7264l1.5287 1.5287-1.5287 1.5286c-.1906.1907-.2476.4774-.1444.7265.1031.249.3462.4115.6158.4115h6.6666c1.1046 0 2-.8954 2-2v-2h1.3334V50h-2c-2.3178.0027-4.2823 1.706-4.6134 4H30c-.3682 0-.6667.2985-.6667.6667v2.6666c0 .3682.2985.6667.6667.6667h2v1.3333h-3.3333c-.3682 0-.6667.2985-.6667.6667v2.6667c0 .3682.2985.6666.6667.6666H36C36 65.9107 38.0893 68 40.6667 68c2.5773 0 4.6666-2.0893 4.6666-4.6667h12C57.3333 65.9107 59.4227 68 62 68c2.5773 0 4.6667-2.0893 4.6667-4.6667h.6666c.2033.0002.3955-.0924.5221-.2515.1266-.159.1737-.3671.1279-.5651L64.1713 46zm-9.5046-2c0 1.1046.8954 2 2 2 1.1045 0 2-.8954 2-2v14h-2v-.6667c0-1.1045-.8955-2-2-2V48c0-.3682-.2985-.6667-.6667-.6667h-7.3333v-1.8126l1.838.4593c.0529.0133.1074.02.162.02H54c.3682 0 .6667-.2985.6667-.6667V44zm2.6666-7.3333h-2.6666v-1.3334h2.6666v1.3334zM32 62v-1.3333h-2.6667V62H32zm0-5.3333h-1.3333v-1.3334H32v1.3334zm33.3333-16H64v4h1.3333v-4zm-5.3333 0h2.6667v4H60v-4zm-4.6667 16.6666c0-.3682-.2984-.6666-.6666-.6666H52V58h3.3333v-.6667zm-6.8286-14.02c.0529.0133.1074.02.162.02h4.6666v1.3334h-4.5846L44 43.4793v-1.292l4.5047 1.126zm-7.1714-13.98c-.7363 0-1.3333.597-1.3333 1.3334v2.6666h2V32c0-.3682.2985-.6667.6667-.6667h2.6666v-.6666c0-.7364-.5969-1.3334-1.3333-1.3334h-2.6667zM40 34.6667h2.6667c.3682 0 .6666-.2985.6666-.6667v-1.3333h2v1.504L40 35.7707v-1.104zm5.3333 4v-3.104L40 37.1627v1.504h5.3333zm0 1.3333v1.146l-1.838-.4593c-.1992-.0499-.4102-.0053-.5721.1211-.1619.1263-.2565.3202-.2565.5255V44c0 .3058.208.5724.5046.6467l2.162.5406v2.146H40V40h5.3333zm8 15.3333v-6.6666H40V50h11.3333c.3682 0 .6667.2985.6667.6667v4.6666h1.3333zM36 45.3333c0 .3682-.2985.6667-.6667.6667H30.276l.862-.862c.2603-.2603.2603-.6823 0-.9427l-.862-.862H36v2zM34.6667 40v2h4v-2.6667h-3.3334c-.3682 0-.6666.2985-.6666.6667zm6 26.6667c-1.8401-.0022-3.3312-1.4933-3.3334-3.3334h1.3334c0 1.1046.8954 2 2 2 1.1045 0 2-.8954 2-2H44c-.0022 1.8401-1.4933 3.3312-3.3333 3.3334zm0-2.6667c.3682 0 .6666-.2985.6666-.6667H40c0 .3682.2985.6667.6667.6667zm4.6666-2H36v-6.6667c0-.3682.2985-.6666.6667-.6666h8c.3682 0 .6666.2984.6666.6666V62zm1.3334 0H48v-7.3333c-.0022-1.8401-1.4933-3.3312-3.3333-3.3334h-8c-1.8401.0022-3.3312 1.4933-3.3334 3.3334V62h1.3334v-6.6667c0-1.1045.8954-2 2-2h8c1.1045 0 2 .8955 2 2V62zm1.26-10.6667h2.74V58h-1.3334v-3.3333c.0002-1.2554-.5071-2.4576-1.4066-3.3334zM62 66.6667c-1.84-.0022-3.3311-1.4933-3.3333-3.3334H60c0 1.1046.8954 2 2 2s2-.8954 2-2h1.3333C65.3311 65.1734 63.84 66.6645 62 66.6667zM62 64c.3682 0 .6667-.2985.6667-.6667h-1.3334c0 .3682.2985.6667.6667.6667zm-2-2v-4.6667h1.3333V56H60V46h2.8l3.692 16H60zm-10.6667 0h9.3334v-2.6667h-9.3334V62zM64 56h-1.3333v1.3333H64V56zm-26.6667 0h1.3334v1.3333h-1.3334V56zm4 0H40v1.3333h1.3333V56zm1.3334 0H44v1.3333h-1.3333V56zm14-12.6667c.3682 0 .6666.2985.6666.6667 0 .3682-.2984.6667-.6666.6667-.3682 0-.6667-.2985-.6667-.6667 0-.3682.2985-.6667.6667-.6667zM28 32.6667h8.6667V34H28v-1.3333zm9.3333 2.6666h-8v1.3334h8v-1.3334z" fill="#495567"/></svg>