<svg width="96" height="96" fill="none" xmlns="http://www.w3.org/2000/svg"><circle cx="48" cy="48" r="48" fill="#FCB72B"/><path fill-rule="evenodd" clip-rule="evenodd" d="M53.7996 24H33.0107c-2.2068.0028-3.9951 1.791-3.9979 3.9979v39.9786c.0028 2.2069 1.7911 3.9951 3.9979 3.9979H53V70.544c-.0038-3.6019 1.0625-7.1246 3.064-10.1194.2119-.3175.1693-.7398-.1-1.0091l-5.597-5.597c-.5173-.5179-.7915-1.2301-.7554-1.9612.0364-.7314.38-1.4126.9457-1.8768 1.0896-.8329 2.6306-.714 3.5797.2757l7.8926 7.8928 1.1306-1.1306-5.3627-5.3643V27.9979c-.0028-2.2069-1.7911-3.9951-3.9979-3.9979zm2.3987 26.0549l-.9307-.9307c-1.534-1.5672-4.0011-1.7305-5.7281-.3786-.9135.7508-1.4678 1.853-1.5256 3.0346-.0576 1.1814.3862 2.3321 1.2225 3.1689l5.1413 5.1415c-1.9174 3.0897-2.9456 6.6486-2.9712 10.2847H33.0107c-1.3245 0-2.3987-1.0743-2.3987-2.3988v-2.3987h19.9893v-1.5991H30.612V30.3966h25.5863v19.6583zM30.612 28.7974h25.5863v-.7995c0-1.3245-1.0742-2.3988-2.3987-2.3988H33.0107c-1.3245 0-2.3987 1.0743-2.3987 2.3988v.7995zm29.543 13.8031l-1.0782 1.1786 4.9036 4.4952c1.1544 1.062 1.8124 2.5584 1.8128 4.1266v19.5735h1.5991V52.4009c-.0019-2.017-.8479-3.9403-2.3331-5.3054l-4.9042-4.495zm-26.3447-4.2082h3.1983c.8833 0 1.5991-.7158 1.5991-1.5991v-3.1983c0-.8833-.7158-1.5992-1.5991-1.5992h-3.1983c-.8834 0-1.5992.7159-1.5992 1.5992v3.1983c0 .8833.7158 1.5991 1.5992 1.5991zm0-4.7974h3.1983v3.1983h-3.1983v-3.1983zm11.194 4.7974H41.806c-.8833 0-1.5992-.7158-1.5992-1.5991v-3.1983c0-.8833.7159-1.5992 1.5992-1.5992h3.1983c.8833 0 1.5991.7159 1.5991 1.5992v3.1983c0 .8833-.7158 1.5991-1.5991 1.5991zm0-4.7974H41.806v3.1983h3.1983v-3.1983zm4.7974 4.7974H53c.8834 0 1.5992-.7158 1.5992-1.5991v-3.1983c0-.8833-.7158-1.5992-1.5992-1.5992h-3.1983c-.8833 0-1.5991.7159-1.5991 1.5992v3.1983c0 .8833.7158 1.5991 1.5991 1.5991zm0-4.7974H53v3.1983h-3.1983v-3.1983zM37.0086 46.3881h-3.1983c-.8834 0-1.5992-.7159-1.5992-1.5992v-3.1983c0-.8833.7158-1.5991 1.5992-1.5991h3.1983c.8833 0 1.5991.7158 1.5991 1.5991v3.1983c0 .8833-.7158 1.5992-1.5991 1.5992zm0-4.7975h-3.1983v3.1983h3.1983v-3.1983zm-3.1983 12.7932h3.1983c.8833 0 1.5991-.7158 1.5991-1.5992v-3.1982c0-.8834-.7158-1.5992-1.5991-1.5992h-3.1983c-.8834 0-1.5992.7158-1.5992 1.5992v3.1982c0 .8834.7158 1.5992 1.5992 1.5992zm0-4.7974h3.1983v3.1982h-3.1983v-3.1982zm11.194-3.1983H41.806c-.8833 0-1.5992-.7159-1.5992-1.5992v-3.1983c0-.8833.7159-1.5991 1.5992-1.5991h3.1983c.8833 0 1.5991.7158 1.5991 1.5991v3.1983c0 .8833-.7158 1.5992-1.5991 1.5992zm0-4.7975H41.806v3.1983h3.1983v-3.1983zm4.7974 4.7975H53c.8834 0 1.5992-.7159 1.5992-1.5992v-3.1983c0-.8833-.7158-1.5991-1.5992-1.5991h-3.1983c-.8833 0-1.5991.7158-1.5991 1.5991v3.1983c0 .8833.7158 1.5992 1.5991 1.5992zm0-4.7975H53v3.1983h-3.1983v-3.1983zm-4.7974 12.7932H41.806c-.8833 0-1.5992-.7158-1.5992-1.5992v-3.1982c0-.8834.7159-1.5992 1.5992-1.5992h3.1983c.8833 0 1.5991.7158 1.5991 1.5992v3.1982c0 .8834-.7158 1.5992-1.5991 1.5992zm0-4.7974H41.806v3.1982h3.1983v-3.1982zm-11.194 12.7931h3.1983c.8833 0 1.5991-.7158 1.5991-1.5991v-3.1983c0-.8833-.7158-1.5992-1.5991-1.5992h-3.1983c-.8834 0-1.5992.7159-1.5992 1.5992v3.1983c0 .8833.7158 1.5991 1.5992 1.5991zm0-4.7974h3.1983v3.1983h-3.1983v-3.1983zm11.194 4.7974H41.806c-.8833 0-1.5992-.7158-1.5992-1.5991v-3.1983c0-.8833.7159-1.5992 1.5992-1.5992h3.1983c.8833 0 1.5991.7159 1.5991 1.5992v3.1983c0 .8833-.7158 1.5991-1.5991 1.5991zm0-4.7974H41.806v3.1983h3.1983v-3.1983zm-.7996 9.5949h-1.5991v1.5991h1.5991V67.177z" fill="#495567"/></svg>