<svg width="96" height="96" fill="none" xmlns="http://www.w3.org/2000/svg"><circle cx="48" cy="48" r="48" fill="#FCB72B"/><path d="M45.0698 62.301c-.2177 0-.4309.0885-.5846.2423-.1538.1537-.2423.3672-.2423.5846 0 .2174.0885.4309.2423.5846.1537.1538.3669.2423.5846.2423.2174 0 .4305-.0885.5846-.2423.1538-.1537.2423-.3663.2423-.5846 0-.2174-.0885-.4309-.2423-.5846-.1541-.1538-.3672-.2423-.5846-.2423z" fill="#000"/><path fill-rule="evenodd" clip-rule="evenodd" d="M61.5391 48.4188l-1.927-8.7057c.52-.0704.9787-.335 1.3013-.718.3809.238.8301.3763 1.3114.3763h1.6538c.4567 0 .8268-.3702.8268-.8269V35.237c0-.4567-.3701-.8269-.8268-.8269h-1.6538c-.4955 0-.9574.1467-1.3453.3983-.3785-.428-.9312-.6987-1.5462-.6987h-4.8811c-.8769 0-1.6276.5501-1.9264 1.323h-1.9599c-1.1854 0-2.1499.9645-2.1499 2.1499s.9645 2.1499 2.1499 2.1499h4.2561v1.6663c0 .4567.3702.8269.8269.8269s.8269-.3702.8269-.8269v-1.6663h1.447l2.0756 9.3782-3.9283 6.9968c-.4293.7616-1.2387 1.2348-2.1131 1.2348h-9.8065c-.4105-3.4428-3.3459-6.1215-6.8973-6.1215-1.5714 0-3.0539.512-4.2874 1.4803l-.0049.0039c-1.4687 1.1551-2.3918 2.8127-2.6069 4.6373h-1.6983c.1079-5.9445 4.9771-10.7468 10.9464-10.7468h5.8656c.4629 0 .8398.377.8398.8401v7.4261c0 .4567.3701.8268.8269.8268h4.3998c1.7949 0 3.449-.9761 4.3166-2.5468.4015-.7267.6143-1.5497.615-2.3795l.0042-2.7471c.0006-.4567-.3692-.8275-.8259-.8282h-.001c-.4561 0-.8262.3695-.8269.8256l-.0042 2.7478c-.0003.5516-.1418 1.0988-.4086 1.5817-.5769 1.0439-1.6763 1.6925-2.8692 1.6925h-3.573v-6.5992c0-.4234-.1065-.8227-.2936-1.1725.7429-.4292 1.2442-1.2316 1.2442-2.1492 0-1.3679-1.113-2.4806-2.4806-2.4806h-3.0181c-.29 0-.5681.0504-.8269.1421v-7.2532c0-1.3679-1.113-2.4806-2.4806-2.4806h-5.3343c-3.8669 0-7.0827 2.8391-7.6738 6.5419-.0248.0789-.0384.1625-.0384.2494 0 .0026.0002.0052.0003.0077.0002.0024.0004.0048.0004.0072-.0395.3165-.0598.6385-.0598.9651v4.3013c0 1.242.9176 2.2736 2.1105 2.4529l1.831 1.831C28.5155 50.6963 27 53.9463 27 57.5442v.625c0 .4567.3702.8268.8269.8268h4.6469c-.0106.0533-.0164.1089-.0164.1654 0 1.2.4441 2.2978 1.1754 3.1395h-5.8059c-.4567 0-.8269.3705-.8269.8269 0 .4567.3702.8269.8269.8269h9.3307l.0276.0009c.0227.0009.0453.0017.068.0017 2.6444 0 4.7959-2.1515 4.7959-4.7959 0-.0565-.0058-.1121-.0165-.1654H53.957c1.302 0 2.5188-.624 3.2814-1.6563h1.0471c-.2354.573-.3604 1.1906-.3604 1.8217 0 1.2.4441 2.2978 1.1754 3.1395H48.3773c-.4568 0-.8269.3705-.8269.8269 0 .4567.3701.8269.8269.8269h14.248c.032.001.0637.0026.0956.0026 2.6444 0 4.7959-2.1515 4.7959-4.7959 0-.6311-.125-1.2487-.3605-1.8217h1.3527c.4568 0 .8269-.3701.8269-.8269 0-4.3646-3.4706-7.9341-7.7968-8.094zm-18.126-5.1317h3.0181c.4558 0 .8269.3708.8269.8268 0 .4558-.3711.8269-.8269.8269h-3.0181c-.4561 0-.8269-.3711-.8269-.8269 0-.456.3708-.8268.8269-.8268zM28.656 39.7109c-.0011.0339-.0023.0677-.0023.1017v4.3013c0 .4558.3708.8269.8266.8269h10.625c.4561 0 .8269-.3711.8269-.8269v-9.5917c0-.4561-.3708-.8269-.8269-.8269h-5.334c-2.7445 0-5.0723 1.8166-5.8449 4.3108h8.7793c.4568 0 .8269.3701.8269.8268s-.3701.8269-.8269.8269h-9.0481l-.0016.0511zm2.8211 6.8837h1.8921c-.3973.2267-.7807.4751-1.1496.7425l-.7425-.7425zm5.8081 15.708c1.7177-.0172 3.1101-1.4193 3.1101-3.1412 0-.0565.0059-.1121.0165-.1654h-6.3172c.0107.0533.0165.1089.0165.1654 0 1.7006 1.3582 3.0888 3.0468 3.1395h.0953c.0061 0 .0122.0005.0183.0009.0046.0003.0091.0006.0137.0008zm-5.2626-4.9603c.2048-1.3136.8947-2.5003 1.9603-3.3372.0026-.0016.0048-.0039.0074-.0055.9386-.7358 2.0669-1.125 3.2629-1.125 2.6383 0 4.8317 1.9396 5.23 4.4677H32.0226zm31.0291-21.2784h-.8269c-.4561 0-.8269.3711-.8269.8268 0 .4561.3708.8269.8269.8269h.8269v-1.6537zm-12.9819 1.5187c0-.2736.2225-.4961.4961-.4961h1.8217v.5814c0 .1408.0142.2781.041.4108h-1.8627c-.2736 0-.4961-.2225-.4961-.4961zm4.3824.4961h4.8811c.2265 0 .4109-.1841.4109-.4108v-1.4936c0-.2264-.1844-.4108-.4109-.4108h-4.8811c-.2264 0-.4109.1844-.4109.4108v1.4936c0 .2267.1845.4108.4109.4108zM65.863 59.1614c0 1.7219-1.3924 3.124-3.1101 3.1412-.0022-.0001-.0045-.0002-.0067-.0003-.0024-.0002-.0047-.0003-.007-.0005-.0061-.0004-.0122-.0008-.0183-.0008h-.0953c-1.6886-.0508-3.0468-1.439-3.0468-3.1396 0-.657.2048-1.292.5821-1.8217h5.1201c.3773.5297.582 1.1647.582 1.8217zM61.3563 50.07l-3.1531 5.616h9.426c-.4018-3.1263-3.053-5.5569-6.2729-5.616z" fill="#495567"/><path d="M55.6489 45.5334c.4567 0 .8269-.3702.8269-.8269s-.3702-.8269-.8269-.8269h-.0029c-.4567 0-.8256.3702-.8256.8269s.3718.8269.8285.8269z" fill="#000"/></svg>